<svg width="1200" height="630" viewBox="0 0 1200 630" xmlns="http://www.w3.org/2000/svg">
  <defs>
    <linearGradient id="bgGradient" x1="0%" y1="0%" x2="100%" y2="100%">
      <stop offset="0%" style="stop-color:#1e40af;stop-opacity:1" />
      <stop offset="100%" style="stop-color:#ea580c;stop-opacity:1" />
    </linearGradient>
  </defs>
  <rect width="100%" height="100%" fill="url(#bgGradient)"/>
  <g opacity="0.1">
    <rect x="150" y="80" width="60" height="60" rx="8" fill="white"/>
    <rect x="350" y="280" width="50" height="50" rx="8" fill="white"/>
    <rect x="750" y="120" width="55" height="55" rx="8" fill="white"/>
  </g>
  <g transform="translate(80, 80)">
    <rect x="0" y="0" width="60" height="60" rx="12" fill="white" opacity="0.9"/>
    <text x="30" y="40" text-anchor="middle" fill="#1e40af" font-family="Arial, sans-serif" font-size="24" font-weight="bold">Q</text>
    <text x="80" y="25" fill="white" font-family="Arial, sans-serif" font-size="28" font-weight="bold">QuizForce</text>
    <text x="80" y="50" fill="white" font-family="Arial, sans-serif" font-size="16" opacity="0.8">Browse Certifications</text>
  </g>
  <g transform="translate(80, 200)">
    <text x="0" y="0" fill="white" font-family="Arial, sans-serif" font-size="48" font-weight="bold">Certification Catalog</text>
    <text x="0" y="80" fill="white" font-family="Arial, sans-serif" font-size="24" opacity="0.9">Browse practice exams for all Salesforce certifications</text>
  </g>
  <g transform="translate(1000, 430)">
    <rect x="10" y="20" width="100" height="80" rx="8" fill="#ea580c40" stroke="#ea580c" stroke-width="4"/>
    <rect x="25" y="35" width="25" height="20" rx="4" fill="#ea580c"/>
    <rect x="55" y="35" width="25" height="20" rx="4" fill="#ea580c"/>
    <rect x="85" y="35" width="15" height="20" rx="4" fill="#ea580c"/>
    <rect x="25" y="65" width="25" height="20" rx="4" fill="#ea580c"/>
    <rect x="55" y="65" width="25" height="20" rx="4" fill="#ea580c"/>
  </g>
  <rect x="0" y="622" width="1200" height="8" fill="#ea580c"/>
</svg>
